<svg width="128" height="128" viewBox="0 0 128 128" fill="none" xmlns="http://www.w3.org/2000/svg">
<path fill-rule="evenodd" clip-rule="evenodd" d="M58.4047 5.09212C81.3017 3.99235 99.2852 12.7394 112.355 31.3331C123.531 49.0732 125.163 67.6769 117.251 87.1442C111.097 100.516 101.403 110.405 88.1706 116.812C73.7571 122.916 59.0699 123.633 44.1092 118.966C27.7999 112.84 16.2133 101.776 9.3497 85.7734C1.75548 65.5028 4.10542 46.5075 16.3995 28.7874C26.9786 14.9276 40.9803 7.02926 58.4047 5.09212Z" fill="#171E22"/>
<path fill-rule="evenodd" clip-rule="evenodd" d="M58.9927 12.3373C74.4682 11.5955 87.8498 16.4585 99.1375 26.9265C107.484 35.2974 112.478 45.3826 114.118 57.182C115.8 75.7085 109.697 91.0811 95.8084 103.3C84.1302 112.47 70.8791 116.126 56.0553 114.266C40.7391 111.59 28.8263 103.79 20.3166 90.8645C10.9973 74.7251 10.1488 58.1451 17.7708 41.1241C25.2861 26.1176 37.2644 16.8157 53.7053 13.2185C55.4921 12.914 57.2545 12.6203 58.9927 12.3373Z" fill="#FDFDFD"/>
<path fill-rule="evenodd" clip-rule="evenodd" d="M71.3284 25.4582C80.4626 24.6559 88.622 27.0384 95.807 32.606C97.6589 34.0645 99.0624 35.8595 100.017 37.9912C100.787 41.3154 99.5794 43.5675 96.3945 44.7473C93.5867 45.0896 91.5305 44.0126 90.2259 41.5162C83.395 35.0395 75.2681 32.2652 65.8452 33.1934C54.8976 34.9271 46.7708 40.6388 41.4646 50.3284C37.5623 58.8154 37.4319 67.3667 41.073 75.9819C47.1019 87.3711 56.5996 92.9522 69.566 92.7253C73.0055 92.5666 76.2694 91.7506 79.3574 90.2774C75.3925 95.2924 70.1051 97.7729 63.4953 97.7189C50.1786 96.8555 40.0934 90.7196 33.2398 79.311C26.7489 66.0664 28.2503 53.8598 37.7439 42.6911C46.8818 32.9814 58.0767 27.2371 71.3284 25.4582Z" fill="#171E22"/>
<path fill-rule="evenodd" clip-rule="evenodd" d="M57.4251 100.46C58.4043 100.591 59.3834 100.721 60.3626 100.852C52.8122 104.691 45.3707 104.463 38.0381 100.166C28.8268 93.9299 22.9844 85.3462 20.5115 74.415C16.8538 56.2098 21.9126 40.9677 35.6882 28.6891C42.6532 23.0582 50.617 19.7944 59.5792 18.8977C61.9339 18.7673 64.2838 18.8327 66.6291 19.0935C67.5841 19.165 68.4979 19.3608 69.3707 19.681C57.6656 22.0742 47.3519 27.1657 38.4298 34.9556C32.2925 40.5729 27.8864 47.329 25.2114 55.2238C22.0926 67.292 24.6384 77.9973 32.8487 87.3397C39.4219 94.7226 47.6139 99.096 57.4251 100.46Z" fill="#181F23"/>
<path fill-rule="evenodd" clip-rule="evenodd" d="M94.0452 81.2695C98.1225 81.1371 100.179 83.0954 100.214 87.1443C99.986 88.1877 99.5944 89.1668 99.0388 90.0817C90.4488 101.901 78.797 107.971 64.0834 108.294C61.8935 108.395 59.7394 108.166 57.6211 107.608C66.8197 105.456 75.1099 101.475 82.4913 95.6629C85.0435 93.4392 87.2301 90.926 89.0515 88.1235C89.8008 86.5954 90.4535 85.0288 91.0098 83.4236C91.818 82.3861 92.8299 81.668 94.0452 81.2695Z" fill="#161E22"/>
<path fill-rule="evenodd" clip-rule="evenodd" d="M57.4253 100.46C58.5368 100.427 59.6466 100.46 60.7544 100.558C60.6478 100.698 60.5172 100.796 60.3627 100.852C59.3836 100.721 58.4044 100.591 57.4253 100.46Z" fill="#7F8284"/>
</svg>
