<svg width="32" height="32" viewBox="0 0 32 32" fill="none" xmlns="http://www.w3.org/2000/svg">
<g clip-path="url(#clip0_676_288)">
<path d="M30.5 0H1.5C0.671573 0 0 0.671573 0 1.5V30.5C0 31.3284 0.671573 32 1.5 32H30.5C31.3284 32 32 31.3284 32 30.5V1.5C32 0.671573 31.3284 0 30.5 0Z" fill="#3178C6"/>
<path fill-rule="evenodd" clip-rule="evenodd" d="M18.5655 24.867V28.3735C19.1336 28.6655 19.8055 28.8848 20.5812 29.0308C21.3568 29.177 22.1744 29.25 23.0338 29.25C23.8714 29.25 24.667 29.1698 25.4207 29.009C26.1747 28.8483 26.8355 28.5835 27.4037 28.2145C27.9717 27.8455 28.4215 27.3635 28.753 26.768C29.0843 26.1727 29.25 25.4367 29.25 24.5602C29.25 23.9246 29.1552 23.3677 28.966 22.8892C28.7765 22.4107 28.5035 21.9852 28.1465 21.6126C27.7897 21.2401 27.3618 20.9059 26.863 20.61C26.364 20.3142 25.8015 20.0347 25.175 19.7717C24.7162 19.5818 24.3047 19.3974 23.9405 19.2184C23.5764 19.0394 23.2668 18.8568 23.0119 18.6705C22.757 18.4842 22.5604 18.287 22.422 18.0788C22.2836 17.8706 22.2144 17.635 22.2144 17.372C22.2144 17.131 22.2763 16.9137 22.4002 16.7201C22.524 16.5265 22.6988 16.3603 22.9245 16.2215C23.1503 16.0827 23.4271 15.975 23.7548 15.8983C24.0826 15.8216 24.4467 15.7832 24.8473 15.7832C25.1387 15.7832 25.4463 15.8051 25.7705 15.849C26.0945 15.8928 26.4205 15.9604 26.7482 16.0517C27.076 16.143 27.3945 16.258 27.7043 16.3968C28.0138 16.5356 28.2995 16.6963 28.5618 16.879V13.6027C28.03 13.3981 27.4493 13.2466 26.8193 13.1479C26.1893 13.0493 25.4665 13 24.6507 13C23.8204 13 23.0338 13.0895 22.2909 13.2684C21.548 13.4474 20.8944 13.7268 20.3299 14.1067C19.7655 14.4866 19.3193 14.9705 18.9916 15.5586C18.6639 16.1466 18.5 16.8497 18.5 17.6679C18.5 18.7125 18.8004 19.6037 19.4013 20.3415C20.0022 21.0793 20.9144 21.7039 22.138 22.2153C22.6187 22.4125 23.0666 22.6061 23.4817 22.796C23.8969 22.9859 24.2556 23.1832 24.5578 23.3877C24.8601 23.5923 25.0985 23.8151 25.2733 24.0561C25.4483 24.2972 25.5355 24.5711 25.5355 24.878C25.5355 25.1045 25.481 25.3145 25.3717 25.508C25.2625 25.7015 25.0967 25.8695 24.8746 26.012C24.6525 26.1545 24.3757 26.266 24.0443 26.3463C23.7129 26.4265 23.3251 26.4667 22.8808 26.4667C22.1234 26.4667 21.3732 26.3335 20.6303 26.0667C19.8875 25.8002 19.1992 25.4003 18.5655 24.867ZM12.6756 16.1386H17.25V13.25H4.5V16.1386H9.05198V29H12.6756V16.1386Z" fill="white"/>
</g>
<defs>
<clipPath id="clip0_676_288">
<rect width="32" height="32" fill="white"/>
</clipPath>
</defs>
</svg>
